<?xml version="1.0" encoding="utf-8"?>
<!-- Generator: Adobe Illustrator 19.2.0, SVG Export Plug-In . SVG Version: 6.00 Build 0)  -->
<svg version="1.1" id="レイヤー_1" xmlns="http://www.w3.org/2000/svg" xmlns:xlink="http://www.w3.org/1999/xlink" x="0px"
	 y="0px" viewBox="0 0 14 14" style="enable-background:new 0 0 14 14;" xml:space="preserve">
<style type="text/css">
	.st0{fill:#FFFFFF;}
</style>
<path class="st0" d="M7,0C3.1,0,0,3.1,0,7s3.1,7,7,7s7-3.1,7-7C14,3.2,10.9,0,7,0z M9.3,7.5c0,0-2.2,2.2-2.5,2.5S6,10.3,5.7,10
	c-0.3-0.3-0.3-0.7,0-1l1.9-2L5.7,5c-0.3-0.4-0.3-0.8,0-1C6,3.7,6.5,3.7,6.8,4c0.3,0.3,2.5,2.5,2.5,2.5C9.4,6.6,9.5,6.8,9.5,7
	C9.5,7.2,9.4,7.4,9.3,7.5z"/>
<path class="st0" d="M7,0C3.1,0,0,3.1,0,7s3.1,7,7,7s7-3.1,7-7C14,3.2,10.9,0,7,0z M9.3,7.5c0,0-2.2,2.2-2.5,2.5S6,10.3,5.7,10
	c-0.3-0.3-0.3-0.7,0-1l1.9-2L5.7,5c-0.3-0.4-0.3-0.8,0-1C6,3.7,6.5,3.7,6.8,4c0.3,0.3,2.5,2.5,2.5,2.5C9.4,6.6,9.5,6.8,9.5,7
	C9.5,7.2,9.4,7.4,9.3,7.5z"/>
</svg>
